<svg width="489" height="677" viewBox="0 0 489 677" fill="none" xmlns="http://www.w3.org/2000/svg">
<path d="M460.942 676.395H28.159C28.159 669.192 25.2976 662.284 20.2043 657.191C15.111 652.097 8.20301 649.236 1 649.236V28.1589C8.20301 28.1589 15.111 25.2976 20.2043 20.2043C25.2976 15.111 28.159 8.20301 28.159 1H460.942C460.942 8.20301 463.803 15.111 468.897 20.2043C473.99 25.2976 480.898 28.1589 488.101 28.1589V649.236C484.534 649.236 481.003 649.939 477.708 651.303C474.413 652.668 471.419 654.669 468.897 657.191C466.375 659.713 464.374 662.707 463.009 666.002C461.644 669.297 460.942 672.828 460.942 676.395Z" stroke="url(#paint0_linear_284_65152)" stroke-linecap="round" stroke-linejoin="round"/>
<path d="M6.347 11.694C9.30007 11.694 11.694 9.30007 11.694 6.347C11.694 3.39393 9.30007 1 6.347 1C3.39393 1 1 3.39393 1 6.347C1 9.30007 3.39393 11.694 6.347 11.694Z" fill="#843F1E"/>
<path d="M482.754 11.694C485.707 11.694 488.101 9.30007 488.101 6.347C488.101 3.39393 485.707 1 482.754 1C479.801 1 477.407 3.39393 477.407 6.347C477.407 9.30007 479.801 11.694 482.754 11.694Z" fill="#843F1E"/>
<path d="M6.347 676.393C9.30007 676.393 11.694 673.999 11.694 671.046C11.694 668.093 9.30007 665.699 6.347 665.699C3.39393 665.699 1 668.093 1 671.046C1 673.999 3.39393 676.393 6.347 676.393Z" fill="#843F1E"/>
<path d="M482.754 676.393C485.707 676.393 488.101 673.999 488.101 671.046C488.101 668.093 485.707 665.699 482.754 665.699C479.801 665.699 477.407 668.093 477.407 671.046C477.407 673.999 479.801 676.393 482.754 676.393Z" fill="#843F1E"/>
<defs>
<linearGradient id="paint0_linear_284_65152" x1="488" y1="676" x2="7.49998" y2="6.50003" gradientUnits="userSpaceOnUse">
<stop stop-color="#A04418"/>
<stop offset="1" stop-color="#462111"/>
</linearGradient>
</defs>
</svg>
